<?xml version="1.0" encoding="utf-8"?>
<!-- Generator: Adobe Illustrator 27.1.1, SVG Export Plug-In . SVG Version: 6.00 Build 0)  -->
<svg version="1.1" id="Layer_1" xmlns="http://www.w3.org/2000/svg" xmlns:xlink="http://www.w3.org/1999/xlink" x="0px" y="0px"
	 viewBox="0 0 1013 336" style="enable-background:new 0 0 1013 336;" xml:space="preserve">
<style type="text/css">
	.st0{fill:#E4AB8D;}
	.st1{fill:#231E51;}
</style>
<polygon class="st0" points="280.9,200.4 280.9,232.5 185.3,289.4 89.6,232.5 89.6,118.6 152.2,81.3 180,97.9 117,135.4 117,216.7 
	185.3,257.3 235.6,227.3 253.5,216.7 "/>
<polygon class="st0" points="89.6,111.4 89.5,79.2 185,22 280.8,78.8 281,192.6 218.5,230.1 190.7,213.6 253.6,175.9 253.4,94.6 
	185.1,54.2 134.8,84.3 116.9,95 "/>
<circle class="st1" cx="185.3" cy="138.9" r="22.9"/>
<path class="st0" d="M397.5,150.5l-2.7-4.7l-21.1,12.7l7.7,14.3l27.2,50.8h31.1L397.5,150.5z M401.6,99.9l-28.6,44.8l-0.9,1.4
	l-7.4,11.7l-8.3,13.1l1.9,33.9l6.5-8.9l16.6-23l16.1-22.3L434,99.9L401.6,99.9L401.6,99.9z M337.7,223.6h27.1v-65.9l-27.1,42.3
	V223.6z M337.7,99.9v88.3l27.1-42.3v-46H337.7z"/>
<path class="st1" d="M521.8,170.5l-3.1-5.6l-27.1,3.9l2,3.8l26.4,51h31.1L521.8,170.5z M540.9,115c-3.3-4.9-7.9-8.6-14-11.2
	c-6.1-2.6-13.2-3.9-21.6-3.9h-40.2v21.4h39.9c4,0,7.1,1.1,9.3,3.2c2.3,2.1,3.4,5,3.4,8.6v7c0,3.5-1.1,6.2-3.4,8.3
	c-2.3,2-5.4,3.1-9.3,3.1h-39.9v21.3h40.2c6.1,0,11.6-0.7,16.4-2.2c1.8-0.5,3.5-1.1,5.1-1.9c6-2.7,10.7-6.5,14-11.4
	c3.3-4.9,5-10.8,5-17.6v-7.2C545.8,125.7,544.2,119.9,540.9,115z M453.7,99.9v123.8h26.9V99.9H453.7z"/>
<path class="st1" d="M653.9,116.1c-3.8-5.6-9.3-9.9-16.3-12.9c-7.1-3-15.4-4.5-25-4.5c-9.6,0-17.9,1.5-24.9,4.5
	c-7.1,3-12.5,7.3-16.3,12.9c-3.8,5.6-5.7,12.2-5.7,19.9v51.7c0,7.6,1.9,14.2,5.7,19.8c3.8,5.6,9.3,9.9,16.3,12.9
	c7.1,3,15.4,4.5,24.9,4.5c9.6,0,17.9-1.5,25-4.5c7-3,12.5-7.3,16.3-12.9c3.8-5.6,5.7-12.2,5.7-19.8v-51.7
	C659.7,128.3,657.8,121.7,653.9,116.1z M631.9,186.5c0,5-1.7,8.9-5.2,11.9c-3.4,2.9-8.1,4.4-14,4.4c-5.8,0-10.5-1.5-14-4.4
	c-3.5-2.9-5.2-6.9-5.2-11.9V137c0-5,1.7-9,5.2-11.9c3.5-2.9,8.1-4.4,14-4.4c5.9,0,10.6,1.5,14,4.4c3.4,2.9,5.2,6.9,5.2,11.9V186.5z"
	/>
<path class="st1" d="M767.5,99.9l-27.3,75.2l-27.1-75.2h-31.1v123.7h24.7v-80l24,62.1h19l24.2-64.3v82.1h24.5V99.9H767.5z"/>
<path class="st1" d="M837.5,183.1v21.1h60.4v-21.1H837.5z M876.5,99.9h-18.1l-47,123.7h28.1l6.6-19.5l7.1-21.1l14.2-42.1l14.2,42.1
	l7.1,21.1l6.6,19.5h28.1L876.5,99.9z"/>
</svg>
